<?xml version="1.0" encoding="utf-8"?>
<!-- Generator: Adobe Illustrator 24.0.1, SVG Export Plug-In . SVG Version: 6.00 Build 0)  -->
<svg version="1.1" id="Layer_1" xmlns="http://www.w3.org/2000/svg" xmlns:xlink="http://www.w3.org/1999/xlink" x="0px" y="0px"
	 viewBox="0 0 210.79 276.54" style="enable-background:new 0 0 210.79 276.54;" xml:space="preserve">
<style type="text/css">
	.st0{fill:#3D3935;}
	.st1{fill:#F78D2C;}
</style>
<g>
	<path class="st0" d="M43.75,237.34h1.17v15.69h-1.17V237.34z"/>
	<path class="st0" d="M48.62,237.34h1.1l10.83,13.65v-13.65h1.12v15.69h-0.87l-11.05-13.94v13.94h-1.12V237.34z"/>
	<path class="st0" d="M64.86,245.23v-0.04c0-4.44,3.32-8.11,7.85-8.11c2.8,0,4.48,1.03,6.1,2.51l-0.83,0.85
		c-1.37-1.32-2.94-2.31-5.29-2.31c-3.77,0-6.61,3.07-6.61,7.02v0.04c0,3.97,2.89,7.06,6.63,7.06c2.26,0,3.81-0.88,5.4-2.44
		l0.78,0.76c-1.66,1.64-3.45,2.73-6.23,2.73C68.18,253.3,64.86,249.74,64.86,245.23z"/>
	<path class="st0" d="M81.4,246.51v-9.17h1.17v9.06c0,3.7,2,5.83,5.31,5.83c3.18,0,5.22-1.93,5.22-5.72v-9.17h1.17v9.03
		c0,4.51-2.62,6.9-6.43,6.9C84.07,253.28,81.4,250.9,81.4,246.51z"/>
	<path class="st0" d="M97.02,237.34h6.48c1.77,0,3.21,0.52,4.08,1.39c0.65,0.65,1.01,1.48,1.01,2.47v0.04
		c0,2.13-1.39,3.21-2.67,3.72c1.88,0.49,3.54,1.57,3.54,3.74v0.04c0,2.62-2.24,4.28-5.63,4.28h-6.81V237.34z M107.4,241.31
		c0-1.73-1.41-2.89-3.92-2.89h-5.29v6.16h5.18c2.35,0,4.03-1.14,4.03-3.23V241.31z M103.5,245.66h-5.31v6.3h5.69
		c2.69,0,4.39-1.23,4.39-3.21v-0.04C108.28,246.78,106.6,245.66,103.5,245.66z"/>
	<path class="st0" d="M119.28,237.23h1.12l7.31,15.8h-1.28l-1.99-4.39h-9.26l-1.99,4.39h-1.21L119.28,237.23z M123.94,247.59
		l-4.12-9.08l-4.15,9.08H123.94z"/>
	<path class="st0" d="M134.05,238.42h-5.47v-1.08h12.1v1.08h-5.47v14.61h-1.17V238.42z"/>
	<path class="st0" d="M144.29,237.34h1.17v15.69h-1.17V237.34z"/>
	<path class="st0" d="M148.91,245.23v-0.04c0-4.28,3.16-8.11,7.91-8.11s7.87,3.79,7.87,8.07v0.04c0,4.28-3.16,8.11-7.91,8.11
		S148.91,249.51,148.91,245.23z M163.48,245.23v-0.04c0-3.88-2.82-7.06-6.7-7.06s-6.66,3.14-6.66,7.02v0.04
		c0,3.88,2.82,7.06,6.7,7.06S163.48,249.11,163.48,245.23z"/>
	<path class="st0" d="M167.89,237.34h1.1l10.83,13.65v-13.65h1.12v15.69h-0.87l-11.05-13.94v13.94h-1.12V237.34z"/>
</g>
<path class="st1" d="M82.66,189.23c0.85-2.75,3.77-4.8,7.28-4.8c1.2,0,2.31,0.26,3.31,0.68c2.21-1.47,4.94-2.35,7.92-2.35h0.02
	c0.92-1.86,3.29-3.19,6.11-3.19c0.74,0,1.45,0.1,2.12,0.27c-0.09-2.28,0.27-4.66,1.13-7.16c1-2.89,2.45-5.65,3.97-8.4
	c-0.35-4.12-0.62-7.78-5.78-9.28c-1.92-0.56-3.92-0.73-5.88-0.96l-0.01,0l0-0.01c-0.84-0.1-1.68-0.22-2.5-0.38
	c-14.17,14.76-34.15-20.68-34.15-20.68c44.1-6.84,35.81,15.64,35.81,15.64c-3.2-1.56-4.08-3.53-6.52-5.88
	c-5.57-5.35-18.87-6.29-18.87-6.29c15.92,4.07,18.09,11.78,24.35,14.25c1.42,0.32,2.93,0.44,4.38,0.6c2.8,0.3,5.54,0.82,7.87,2.32
	c2.41,1.55,3.49,3.48,4.04,5.65c1.74-3.32,3.24-6.7,3.81-10.34c0.73-4.65,0.06-10.04-3.24-13.85c-3.05-3.52-7.17-6.18-10.43-9.55
	c-3.48-3.61-5.79-8.06-5.88-12.81c-1.76-3.85-4.62-8.32-7.24-10.06C82.9,113.34,67.9,85.58,67.9,85.58
	c34.98-4.88,29.2,13.09,29.2,13.09c-8.4-9.39-18.79-8.55-18.79-8.55c8.4,2.67,15.03,8.03,18.89,11.71l0.53,0.53
	c1.57,1.64,3.17,3.39,4.51,5.27c1.36-5.15,4.53-12.36,7.02-16.66c0,0,8.4-14.82,22.54-24.07c0,0-10.78,1.24-22.39,18.99
	c0,0-15.42-24.19,34.42-28.66c0,0-3.43,43.94-30.38,35.4c-4.68,7.04-7.75,15.11-7.12,20.79c0.62,5.54,4.5,9.44,8.78,13.08
	c1.14-5.84,5.35-10.87,11.54-13.61c4.95-1.97,12.25-3.86,19.07-4.27c0,0-13.33-3.04-23.47,3.89c0,0,0.17-20.29,36.09-5.56
	c0,0-26,26.34-34.35,10.64c-3.96,2.61-6.46,6.99-5.81,11.52c2.32,2.03,4.48,4.22,5.79,6.92c1.83,3.79,2.48,8.21,1.98,12.32
	c-0.96,7.9-5.9,14.62-9.28,21.79c-1.38,2.92-2.7,6.13-2.72,9.37c1.69-0.47,3.52-0.73,5.44-0.73c7.23,0,13.32,3.59,15.29,8.52
	c2.93,0.31,5.24,2.03,5.66,4.21c2.11,1.3,3.78,3.12,4.79,5.24H76.55C78.02,193.62,80.14,190.16,82.66,189.23"/>
<g>
	<path class="st0" d="M43.54,206.39h18v3.82H47.8v6.31h12.17v3.81H47.8v6.52h13.91v3.82H43.54V206.39z"/>
	<path class="st0" d="M64.55,218.6v-0.07c0-6.9,5.17-12.56,12.52-12.56c4.47,0,7.18,1.56,9.5,3.78l-2.74,3.16
		c-1.94-1.8-4.02-3.02-6.8-3.02c-4.61,0-8.01,3.82-8.01,8.57v0.07c0,4.75,3.36,8.6,8.01,8.6c2.98,0,4.89-1.18,6.97-3.12l2.74,2.77
		c-2.53,2.64-5.31,4.3-9.85,4.3C69.83,231.09,64.55,225.57,64.55,218.6z"/>
	<path class="st0" d="M90.22,206.39h4.27v20.39h12.76v3.88H90.22V206.39z"/>
	<path class="st0" d="M110.93,206.39h4.27v24.28h-4.27V206.39z"/>
	<path class="st0" d="M120.67,206.39h9.57c5.69,0,9.23,3.23,9.23,8.12v0.07c0,5.45-4.37,8.29-9.71,8.29h-4.82v7.8h-4.27V206.39z
		 M129.9,219.02c3.23,0,5.24-1.8,5.24-4.34v-0.07c0-2.84-2.05-4.33-5.24-4.33h-4.96v8.74H129.9z"/>
	<path class="st0" d="M141.21,227.13l2.57-3.05c2.32,2.01,4.68,3.16,7.67,3.16c2.64,0,4.3-1.25,4.3-3.05v-0.07
		c0-1.73-0.97-2.67-5.48-3.71c-5.17-1.25-8.08-2.77-8.08-7.25v-0.07c0-4.16,3.47-7.04,8.29-7.04c3.54,0,6.35,1.08,8.81,3.05
		l-2.29,3.23c-2.19-1.63-4.37-2.5-6.59-2.5c-2.5,0-3.95,1.28-3.95,2.88v0.07c0,1.87,1.11,2.71,5.79,3.82
		c5.13,1.25,7.77,3.09,7.77,7.11v0.07c0,4.54-3.57,7.25-8.67,7.25C147.62,231.02,144.12,229.73,141.21,227.13z"/>
	<path class="st0" d="M163.99,206.39h18v3.82h-13.73v6.31h12.17v3.81h-12.17v6.52h13.91v3.82h-18.17V206.39z"/>
</g>
<path class="st1" d="M47.66,62.99c19.6-30.57,58.84-41.24,91.57-26.55c-0.72-0.5-1.45-1.01-2.2-1.49
	c-33.51-21.49-78.05-11.84-99.47,21.57c-21.43,33.4-11.62,77.91,21.89,99.4c0.75,0.48,1.51,0.93,2.27,1.38
	C34.73,133.68,28.06,93.56,47.66,62.99"/>
</svg>
