<?xml version="1.0" encoding="utf-8"?>
<!-- Generator: Adobe Illustrator 24.0.1, SVG Export Plug-In . SVG Version: 6.00 Build 0)  -->
<svg version="1.1" id="Layer_1" xmlns="http://www.w3.org/2000/svg" xmlns:xlink="http://www.w3.org/1999/xlink" x="0px" y="0px"
	 viewBox="0 0 468 168.83" style="enable-background:new 0 0 468 168.83;" xml:space="preserve">
<style type="text/css">
	.st0{fill:#3D3935;}
	.st1{fill:#F78D2C;}
</style>
<g>
	<path class="st0" d="M140.55,107.79h2.21v29.7h-2.21V107.79z"/>
	<path class="st0" d="M149.76,107.79h2.08l20.5,25.84v-25.84h2.12v29.7h-1.66l-20.92-26.39v26.39h-2.12V107.79z"/>
	<path class="st0" d="M180.53,122.73v-0.08c0-8.4,6.28-15.36,14.85-15.36c5.3,0,8.49,1.95,11.54,4.75l-1.57,1.61
		c-2.59-2.5-5.56-4.37-10.02-4.37c-7.13,0-12.52,5.81-12.52,13.28v0.08c0,7.51,5.47,13.37,12.56,13.37c4.29,0,7.21-1.65,10.23-4.63
		l1.49,1.44c-3.14,3.1-6.53,5.18-11.8,5.18C186.81,138.01,180.53,131.26,180.53,122.73z"/>
	<path class="st0" d="M211.85,125.15v-17.36h2.21v17.14c0,7,3.78,11.03,10.06,11.03c6.03,0,9.89-3.65,9.89-10.82v-17.36h2.21v17.1
		c0,8.53-4.96,13.07-12.18,13.07C216.9,137.97,211.85,133.47,211.85,125.15z"/>
	<path class="st0" d="M241.43,107.79h12.26c3.35,0,6.07,0.98,7.72,2.63c1.23,1.23,1.91,2.8,1.91,4.67v0.08
		c0,4.03-2.63,6.07-5.05,7.04c3.56,0.93,6.71,2.97,6.71,7.09v0.08c0,4.96-4.24,8.1-10.65,8.1h-12.9V107.79z M261.07,115.31
		c0-3.27-2.67-5.47-7.43-5.47h-10.01v11.67h9.8c4.46,0,7.64-2.16,7.64-6.11V115.31z M253.69,123.54h-10.06v11.92h10.78
		c5.09,0,8.32-2.33,8.32-6.07v-0.08C262.73,125.66,259.55,123.54,253.69,123.54z"/>
	<path class="st0" d="M283.57,107.58h2.12l13.83,29.92h-2.42l-3.78-8.32H275.8l-3.78,8.32h-2.29L283.57,107.58z M292.39,127.19
		L284.58,110l-7.85,17.19H292.39z"/>
	<path class="st0" d="M311.53,109.83h-10.35v-2.04h22.92v2.04h-10.35v27.67h-2.21V109.83z"/>
	<path class="st0" d="M330.93,107.79h2.21v29.7h-2.21V107.79z"/>
	<path class="st0" d="M339.67,122.73v-0.08c0-8.1,5.98-15.36,14.98-15.36s14.89,7.17,14.89,15.28v0.08c0,8.1-5.98,15.36-14.98,15.36
		S339.67,130.84,339.67,122.73z M367.25,122.73v-0.08c0-7.34-5.35-13.37-12.69-13.37c-7.34,0-12.6,5.94-12.6,13.28v0.08
		c0,7.34,5.35,13.37,12.69,13.37S367.25,130.07,367.25,122.73z"/>
	<path class="st0" d="M375.61,107.79h2.08l20.5,25.84v-25.84h2.12v29.7h-1.66l-20.92-26.39v26.39h-2.12V107.79z"/>
</g>
<path class="st1" d="M89.03,133.89c0.45-1.45,1.99-2.53,3.84-2.53c0.63,0,1.22,0.14,1.75,0.36c1.17-0.77,2.6-1.24,4.17-1.24h0.01
	c0.49-0.98,1.74-1.68,3.22-1.68c0.39,0,0.77,0.05,1.12,0.14c-0.05-1.2,0.14-2.46,0.6-3.77c0.53-1.52,1.29-2.98,2.09-4.43
	c-0.19-2.17-0.33-4.1-3.05-4.89c-1.01-0.29-2.07-0.38-3.1-0.51l-0.01,0l0,0c-0.45-0.05-0.89-0.11-1.32-0.2
	c-7.47,7.78-18-10.9-18-10.9c23.24-3.61,18.88,8.24,18.88,8.24c-1.69-0.82-2.15-1.86-3.44-3.1c-2.94-2.82-9.94-3.31-9.94-3.31
	c8.39,2.15,9.53,6.21,12.84,7.51c0.75,0.17,1.54,0.23,2.31,0.32c1.47,0.16,2.92,0.43,4.15,1.22c1.27,0.82,1.84,1.83,2.13,2.98
	c0.92-1.75,1.71-3.53,2.01-5.45c0.38-2.45,0.03-5.29-1.71-7.3c-1.61-1.86-3.78-3.26-5.5-5.04c-1.83-1.9-3.05-4.25-3.1-6.75
	c-0.93-2.03-2.44-4.39-3.82-5.3c-6,5.63-13.91-9-13.91-9c18.44-2.57,15.39,6.9,15.39,6.9c-4.43-4.95-9.9-4.51-9.9-4.51
	c4.43,1.41,7.92,4.23,9.96,6.17l0.28,0.28c0.83,0.87,1.67,1.79,2.38,2.78c0.72-2.71,2.39-6.52,3.7-8.78c0,0,4.43-7.81,11.88-12.69
	c0,0-5.68,0.65-11.8,10.01c0,0-8.13-12.75,18.14-15.11c0,0-1.81,23.16-16.02,18.66c-2.46,3.71-4.09,7.97-3.75,10.96
	c0.33,2.92,2.37,4.98,4.63,6.9c0.6-3.08,2.82-5.73,6.08-7.18c2.61-1.04,6.46-2.04,10.05-2.25c0,0-7.03-1.6-12.37,2.05
	c0,0,0.09-10.69,19.03-2.93c0,0-13.7,13.88-18.1,5.61c-2.08,1.38-3.41,3.69-3.06,6.07c1.22,1.07,2.36,2.22,3.05,3.65
	c0.96,2,1.3,4.33,1.04,6.49c-0.51,4.16-3.11,7.71-4.89,11.48c-0.73,1.54-1.42,3.23-1.43,4.94c0.89-0.25,1.86-0.38,2.87-0.38
	c3.81,0,7.02,1.89,8.06,4.49c1.55,0.17,2.76,1.07,2.98,2.22c1.11,0.68,1.99,1.64,2.52,2.76H85.81
	C86.58,136.21,87.7,134.38,89.03,133.89"/>
<g>
	<path class="st0" d="M139.96,49.18h34.08v7.22h-26.01v11.95h23.05v7.22h-23.05v12.35h26.34v7.22h-34.41V49.18z"/>
	<path class="st0" d="M179.76,72.3v-0.13c0-13.07,9.79-23.77,23.71-23.77c8.47,0,13.59,2.96,17.99,7.16l-5.19,5.98
		c-3.68-3.42-7.62-5.71-12.87-5.71c-8.73,0-15.17,7.22-15.17,16.22v0.13c0,9,6.37,16.29,15.17,16.29c5.65,0,9.26-2.23,13.2-5.91
		l5.19,5.25c-4.79,4.99-10.05,8.14-18.65,8.14C189.75,95.94,179.76,85.5,179.76,72.3z"/>
	<path class="st0" d="M228.36,49.18h8.08V87.8h24.17v7.36h-32.25V49.18z"/>
	<path class="st0" d="M267.57,49.18h8.08v45.97h-8.08V49.18z"/>
	<path class="st0" d="M286.03,49.18h18.12c10.77,0,17.47,6.11,17.47,15.37v0.13c0,10.31-8.27,15.7-18.39,15.7h-9.13v14.78h-8.08
		V49.18z M303.5,73.09c6.11,0,9.92-3.42,9.92-8.21v-0.13c0-5.39-3.88-8.21-9.92-8.21h-9.39v16.55H303.5z"/>
	<path class="st0" d="M324.91,88.45l4.86-5.78c4.4,3.81,8.87,5.98,14.51,5.98c4.99,0,8.14-2.36,8.14-5.78v-0.13
		c0-3.28-1.84-5.06-10.38-7.03c-9.79-2.36-15.3-5.25-15.3-13.73v-0.13c0-7.88,6.57-13.33,15.7-13.33c6.7,0,12.02,2.04,16.68,5.78
		l-4.33,6.11c-4.14-3.09-8.27-4.73-12.48-4.73c-4.73,0-7.49,2.43-7.49,5.45v0.13c0,3.55,2.1,5.12,10.97,7.22
		c9.72,2.36,14.71,5.84,14.71,13.46v0.13c0,8.6-6.76,13.73-16.42,13.73C337.06,95.81,330.43,93.38,324.91,88.45z"/>
	<path class="st0" d="M368.06,49.18h34.08v7.22h-26.01v11.95h23.05v7.22h-23.05v12.35h26.33v7.22h-34.41V49.18z"/>
</g>
<path class="st1" d="M71.04,67.35c10.33-16.11,31.02-21.74,48.27-14c-0.38-0.27-0.76-0.53-1.16-0.79
	c-17.67-11.33-41.14-6.24-52.43,11.37C54.43,81.54,59.6,105,77.26,116.33c0.4,0.25,0.8,0.49,1.2,0.73
	C64.23,104.61,60.71,83.46,71.04,67.35"/>
</svg>
